<?xml version="1.0" encoding="utf-8"?>
<!-- Generator: Adobe Illustrator 19.1.0, SVG Export Plug-In . SVG Version: 6.00 Build 0)  -->
<svg version="1.1" xmlns="http://www.w3.org/2000/svg" xmlns:xlink="http://www.w3.org/1999/xlink" x="0px" y="0px"
	 viewBox="0 0 365.4 82.9" style="enable-background:new 0 0 365.4 82.9;" xml:space="preserve">
<style type="text/css">
	.st0{fill:#FFFFFF;}
	.st1{opacity:0.7;}
	.st2{opacity:0.4;}
	.st3{opacity:0.9;}
</style>
<g id="Layer_1">
</g>
<g id="Layer_2">
	<g>
		<g>
			<path d="M131.3,18.8c-13.2,0-23.2,10.1-23.2,23.5c0,11.7,8.4,23.6,24.5,23.6c7.8,0,14.2-3.1,20.2-9.7l0.7-0.8l-7.3-5.8l-0.6,0.8
				c-3.7,4.3-8.2,6.6-13,6.6c-7.1,0-12.6-4.2-14.2-10.6h36.6v-1C154.9,29.6,145.2,18.8,131.3,18.8z M131.2,27.7
				c6.6,0,11.8,4.2,13,10.2h-26C119.3,33,123.2,27.7,131.2,27.7z"/>
			<polygon points="177.5,51.1 164.5,19.7 153.9,19.7 173.3,64.8 181.6,64.8 201.1,19.7 190.4,19.7 			"/>
			<path d="M223.8,18.7c-13.2,0-23.2,10.1-23.2,23.5c0,11.7,8.4,23.6,24.5,23.6c7.8,0,14.2-3.1,20.2-9.7l0.7-0.8l-7.3-5.8l-0.6,0.8
				c-3.7,4.3-8.2,6.6-13,6.6c-7.1,0-12.6-4.2-14.2-10.6h36.6v-1C247.4,29.6,237.7,18.7,223.8,18.7z M223.7,27.7
				c6.6,0,11.8,4.2,13,10.2h-26C211.8,33,215.7,27.7,223.7,27.7z"/>
			<path d="M310.8,50.3V0h-9.5v50.9c0,9,4.4,13.9,12.4,13.9h4.1v-9h-3.3C312.1,55.8,310.8,53.8,310.8,50.3z"/>
			<polygon points="355.2,19.7 342,51.2 328.9,19.7 318.2,19.7 336.5,63.1 328.1,82.9 338.1,82.9 365.4,19.7 			"/>
			<path d="M275.2,18.8c-3.8,0.4-9.7,2.2-11.8,8v-7.1h-9.8v45h9.8V42.2c0-11.8,8-14.7,12.3-14.3c6,0.6,7.4,6.3,7.4,11.8v25h9.8V35.9
				C293.1,23.2,283.7,18,275.2,18.8z"/>
		</g>
		<g>
			<g class="st3">
				<g id="XMLID_3_">
					<path d="M79.4,19.4c4.6,4.6,4.6,12.1,0,16.7L36,79.5C44.5,71,49.6,61.4,49.6,52c0-6.7-2.6-13.3-8.6-19.3
						c-2.3-2.3-6.1-2.3-8.4,0c-0.7,0.7-1.2,1.5-1.4,2.4c5.3-19.3,23.2-24,42.9-18.8C76.1,16.8,77.9,17.9,79.4,19.4z"/>
				</g>
			</g>
			<g class="st1">
				<g id="XMLID_2_">
					<path d="M41,32.7C55.3,47,50.5,65,36,79.5c-4.6,4.6-12.1,4.6-16.7,0c-1.5-1.5-2.5-3.4-3.1-5.3h0L0.4,14.9
						c5.3,19.7,18.5,32.9,38,27.7c1-0.3,1.9-0.8,2.7-1.5C43.3,38.8,43.3,35,41,32.7z"/>
				</g>
			</g>
			<g class="st2">
				<g id="XMLID_1_">
					<path d="M14.9,0.4l59.3,15.9c-4.9-1.3-9.7-2-14.2-2c-13.7,0-24.9,6.4-28.8,21c-0.5,2,0,4.2,1.5,5.7c1.5,1.5,3.6,2,5.6,1.6
						c-19.4,5.1-32.6-8-37.9-27.7l0,0c-1.1-3.9,0-8.3,3.1-11.4C6.6,0.4,10.9-0.6,14.9,0.4L14.9,0.4z"/>
				</g>
			</g>
		</g>
	</g>
</g>
</svg>
