<?xml version="1.0" encoding="utf-8"?>
<!-- Generator: Adobe Illustrator 19.1.0, SVG Export Plug-In . SVG Version: 6.00 Build 0)  -->
<svg version="1.1" id="Layer_1" xmlns="http://www.w3.org/2000/svg" xmlns:xlink="http://www.w3.org/1999/xlink" x="0px" y="0px"
	 viewBox="-114 380 365.4 82.9" style="enable-background:new -114 380 365.4 82.9;" xml:space="preserve">
<style type="text/css">
	.st0{fill:#FFFFFF;}
	.st1{opacity:0.7;}
	.st2{opacity:0.4;}
</style>
<g id="Layer_2">
	<g>
		<g>
			<path class="st0" d="M17.3,398.8c-13.2,0-23.2,10.1-23.2,23.5c0,11.7,8.4,23.6,24.5,23.6c7.8,0,14.2-3.1,20.2-9.7l0.7-0.8
				l-7.3-5.8l-0.6,0.8c-3.7,4.3-8.2,6.6-13,6.6c-7.1,0-12.6-4.2-14.2-10.6H41v-1C40.9,409.6,31.2,398.8,17.3,398.8z M17.2,407.7
				c6.6,0,11.8,4.2,13,10.2h-26C5.3,413,9.2,407.7,17.2,407.7z"/>
			<polygon class="st0" points="63.5,431.1 50.5,399.7 39.9,399.7 59.3,444.8 67.6,444.8 87.1,399.7 76.4,399.7 			"/>
			<path class="st0" d="M109.8,398.7c-13.2,0-23.2,10.1-23.2,23.5c0,11.7,8.4,23.6,24.5,23.6c7.8,0,14.2-3.1,20.2-9.7l0.7-0.8
				l-7.3-5.8l-0.6,0.8c-3.7,4.3-8.2,6.6-13,6.6c-7.1,0-12.6-4.2-14.2-10.6h36.6v-1C133.4,409.6,123.7,398.7,109.8,398.7z
				 M109.7,407.7c6.6,0,11.8,4.2,13,10.2h-26C97.8,413,101.7,407.7,109.7,407.7z"/>
			<path class="st0" d="M196.8,430.3V380h-9.5v50.9c0,9,4.4,13.9,12.4,13.9h4.1v-9h-3.3C198.1,435.8,196.8,433.8,196.8,430.3z"/>
			<polygon class="st0" points="241.2,399.7 228,431.2 214.9,399.7 204.2,399.7 222.5,443.1 214.1,462.9 224.1,462.9 251.4,399.7 
							"/>
			<path class="st0" d="M161.2,398.8c-3.8,0.4-9.7,2.2-11.8,8v-7.1h-9.8v45h9.8v-22.5c0-11.8,8-14.7,12.3-14.3
				c6,0.6,7.4,6.3,7.4,11.8v25h9.8v-28.8C179.1,403.2,169.7,398,161.2,398.8z"/>
		</g>
		<g>
			<g>
				<g id="XMLID_7_">
					<path class="st0" d="M-34.6,399.4c4.6,4.6,4.6,12.1,0,16.7L-78,459.5c8.5-8.5,13.6-18.1,13.6-27.5c0-6.7-2.6-13.3-8.6-19.3
						c-2.3-2.3-6.1-2.3-8.4,0c-0.7,0.7-1.2,1.5-1.4,2.4c5.3-19.3,23.2-24,42.9-18.8C-37.9,396.8-36.1,397.9-34.6,399.4z"/>
				</g>
			</g>
			<g class="st1">
				<g id="XMLID_6_">
					<path class="st0" d="M-73,412.7c14.3,14.3,9.5,32.3-5,46.8c-4.6,4.6-12.1,4.6-16.7,0c-1.5-1.5-2.5-3.4-3.1-5.3l0,0l-15.8-59.3
						c5.3,19.7,18.5,32.9,38,27.7c1-0.3,1.9-0.8,2.7-1.5C-70.7,418.8-70.7,415-73,412.7z"/>
				</g>
			</g>
			<g class="st2">
				<g id="XMLID_4_">
					<path class="st0" d="M-99.1,380.4l59.3,15.9c-4.9-1.3-9.7-2-14.2-2c-13.7,0-24.9,6.4-28.8,21c-0.5,2,0,4.2,1.5,5.7
						s3.6,2,5.6,1.6c-19.4,5.1-32.6-8-37.9-27.7l0,0c-1.1-3.9,0-8.3,3.1-11.4C-107.4,380.4-103.1,379.4-99.1,380.4L-99.1,380.4z"/>
				</g>
			</g>
		</g>
	</g>
</g>
</svg>
